<?xml version="1.0" encoding="UTF-8"?><svg xmlns="http://www.w3.org/2000/svg" width="56" height="64" viewBox="0 0 56 64"><path d="M37,0l19,20v38c0,3.31-2.69,6-6,6H6c-3.31,0-6-2.69-6-6V6C0,2.69,2.69,0,6,0h31Z" fill="#730394"/><path d="M37,0l19,20v1h-12c-3.87,0-7-3.13-7-7V0Z" fill="#3d0157"/><path d="M43,20h13L37,0v14c0,3.31,2.69,6,6,6Z" fill="#e5b9fe"/><path d="M10,34v14.5h15.14v-14.5h-15.14ZM15.51,39.5v14.5h15.13v-14.5h-15.13Z" fill="#fff"/><path d="M15.51,39.5h9.63v8.99h-9.63s0-8.99,0-8.99Z" fill="#e5b9fe"/></svg>