<?xml version="1.0" encoding="UTF-8"?><svg xmlns="http://www.w3.org/2000/svg" width="56" height="64" viewBox="0 0 56 64"><path d="M37,0l19,20v38c0,3.31-2.69,6-6,6H6c-3.31,0-6-2.69-6-6V6C0,2.69,2.69,0,6,0h31Z" fill="#8e030f"/><path d="M37,0l19,20v1h-12c-3.87,0-7-3.13-7-7V0Z" fill="#640103"/><path d="M43,20h13L37,0v14c0,3.31,2.69,6,6,6Z" fill="#feb8ab"/><path d="M14.8,49.2h-3.3v4.1c0,.4-.3.7-.8.7-.4,0-.7-.3-.7-.7v-10.2c0-.6.5-1.1,1.1-1.1h3.7c2.4,0,3.8,1.7,3.8,3.6,0,2-1.4,3.6-3.8,3.6ZM14.7,43.3h-3.2v4.6h3.2c1.4,0,2.4-.9,2.4-2.3s-1-2.3-2.4-2.3ZM25.1,54h-3c-.6,0-1.1-.5-1.1-1.1v-9.8c0-.6.5-1.1,1.1-1.1h3c3.7,0,6.2,2.6,6.2,6s-2.4,6-6.2,6ZM25.1,43.3h-2.6v9.3h2.6c2.9,0,4.6-2.1,4.6-4.7.1-2.5-1.6-4.6-4.6-4.6ZM41.4,43.3h-5.8v3.9h5.7c.4,0,.6.3.6.7s-.3.6-.6.6h-5.7v4.8c0,.4-.3.7-.8.7-.4,0-.7-.3-.7-.7v-10.2c0-.6.5-1.1,1.1-1.1h6.2c.4,0,.6.3.6.7.1.3-.2.6-.6.6Z" fill="#fff"/></svg>